<svg id="Icons" xmlns="http://www.w3.org/2000/svg" viewBox="0 0 64 64"><defs><style>.cls-1{opacity:0.35;}.cls-2{fill:#7687ee;}.cls-3{opacity:0.05;}</style></defs><title>puzzle-piece</title><g id="Puzzle_Piece" data-name="Puzzle Piece"><g id="Hexagon_Border" data-name="Hexagon Border" class="cls-1"><path class="cls-2" d="M54.25,8.69h0l-.11-.05h0L36.25.69h0A8,8,0,0,0,30,.58h0l-.12,0h0L10,8.57h0A8,8,0,0,0,5,16V48a8,8,0,0,0,5,7.42h0l19.85,7.94h0l.12,0h0a8,8,0,0,0,6.22-.12h0L54.1,55.37h0l.11-.05h0A8,8,0,0,0,59,48V16A8,8,0,0,0,54.25,8.69ZM57,48a6,6,0,0,1-3.57,5.48h0l-.1,0h0l-17.89,8h0a5.89,5.89,0,0,1-4.66.09h0l-.1,0h0l-19.89-8h0A6,6,0,0,1,7,48V16a6,6,0,0,1,3.77-5.56h0l19.89-8h0l.1,0h0a5.89,5.89,0,0,1,4.66.09h0l17.89,8h0l.1,0h0A6,6,0,0,1,57,16Z"/></g><g id="Hexagon_Base" data-name="Hexagon Base" class="cls-3"><path class="cls-2" d="M53.43,10.52h0l-.1,0h0l-17.89-8h0a5.89,5.89,0,0,0-4.66-.09h0l-.1,0h0l-19.89,8h0A6,6,0,0,0,7,16V48a6,6,0,0,0,3.77,5.56h0l19.89,8h0l.1,0h0a5.89,5.89,0,0,0,4.66-.09h0l17.89-8h0l.1,0h0A6,6,0,0,0,57,48V16A6,6,0,0,0,53.43,10.52Z"/></g><g id="Icon"><path class="cls-2" d="M47.41,30.59h0l-3.83-3.83a10.19,10.19,0,0,0,2.92-1.89,5.2,5.2,0,1,0-7.36-7.34,10.13,10.13,0,0,0-1.89,2.9l-3.84-3.84a2,2,0,0,0-2.83,0l-5.06,5.06A8.38,8.38,0,0,1,28,23.19a3.35,3.35,0,0,1,0,4.76,3.4,3.4,0,0,1-4.79,0,8.3,8.3,0,0,1-1.54-2.44l-5.08,5.08a2,2,0,0,0,0,2.83h0l3.84,3.84a10.15,10.15,0,0,0-2.9,1.88,5.18,5.18,0,0,0,7.34,7.32,10.09,10.09,0,0,0,1.88-2.88l3.84,3.84h0a2,2,0,0,0,2.83,0h0l5.06-5.06A8.42,8.42,0,0,1,36,40.81a3.35,3.35,0,0,1,0-4.76,3.41,3.41,0,0,1,4.8,0,8.3,8.3,0,0,1,1.54,2.44l5.08-5.08h0a2,2,0,0,0,0-2.83Zm-4.73,4.73a7.07,7.07,0,0,0-.64-.76,5.31,5.31,0,0,0-7.52,7.5,7.09,7.09,0,0,0,.77.65L32,46l-6.26-6.26A8.19,8.19,0,0,1,23.64,45,3.31,3.31,0,1,1,19,40.36a8.15,8.15,0,0,1,5.29-2.11L18,32l3.31-3.31a7,7,0,0,0,.64.76,5.3,5.3,0,0,0,7.5-7.5,7,7,0,0,0-.76-.64L32,18l6.26,6.26A8.19,8.19,0,0,1,40.36,19,3.31,3.31,0,1,1,45,23.64a8.15,8.15,0,0,1-5.29,2.11L46,32Z"/></g></g></svg>